<?xml version="1.0" encoding="utf-8"?>
<!-- Generator: Adobe Illustrator 15.0.0, SVG Export Plug-In . SVG Version: 6.00 Build 0)  -->
<!DOCTYPE svg PUBLIC "-//W3C//DTD SVG 1.1//EN" "http://www.w3.org/Graphics/SVG/1.1/DTD/svg11.dtd">
<svg version="1.1" id="Layer_1" xmlns="http://www.w3.org/2000/svg" xmlns:xlink="http://www.w3.org/1999/xlink" x="0px" y="0px"
	 width="511px" height="511px" viewBox="0 0 511 511" enable-background="new 0 0 511 511" xml:space="preserve">
<path fill="#FFFFFF" d="M456.254,230.432h-151.38c-5.536,0-10.02,4.487-10.02,10.02s4.483,10.02,10.02,10.02h151.38
	c5.532,0,10.02-4.487,10.02-10.02S461.79,230.432,456.254,230.432z"/>
<path fill="#FFFFFF" d="M456.254,346.314h-151.38c-5.536,0-10.02,4.487-10.02,10.02c0,5.536,4.483,10.02,10.02,10.02h151.38
	c5.532,0,10.02-4.483,10.02-10.02C466.274,350.802,461.79,346.314,456.254,346.314z"/>
<path fill="#FFFFFF" d="M147.94,366.354h115.883c5.532,0,10.02-4.483,10.02-10.02V240.451c0-5.532-4.487-10.02-10.02-10.02H147.94
	c-5.532,0-10.02,4.487-10.02,10.02v115.883C137.92,361.87,142.407,366.354,147.94,366.354z M157.959,250.471h95.844v95.844h-95.844
	V250.471z"/>
<path fill="#FFFFFF" d="M500.984,0.939h-420.6c-5.536,0-10.02,4.487-10.02,10.02v57.567H10.022c-5.532,0-10.02,4.484-10.02,10.02
	v326.39c0,24.924,20.276,45.2,45.2,45.2h420.6c24.924,0,45.201-20.276,45.201-45.2V10.958
	C511.003,5.422,506.516,0.939,500.984,0.939z M70.365,188.954H55.222v-33.072h15.139v33.072H70.365z M20.041,404.935V88.564h50.323
	v47.279H45.202c-5.532,0-10.02,4.487-10.02,10.02v53.111c0,5.532,4.487,10.02,10.02,10.02h25.158v37.902H45.202
	c-5.532,0-10.02,4.487-10.02,10.02s4.487,10.02,10.02,10.02h25.158v37.902H45.202c-5.532,0-10.02,4.487-10.02,10.02
	c0,5.536,4.487,10.023,10.02,10.023h25.158v37.898H45.202c-5.532,0-10.02,4.487-10.02,10.023c0,5.532,4.487,10.02,10.02,10.02
	h25.158v22.113c0,13.875-11.287,25.161-25.158,25.161C31.327,430.096,20.041,418.81,20.041,404.935z M490.964,404.935
	c0,13.875-11.287,25.161-25.162,25.161H82.735c4.979-7.399,7.665-16.241,7.665-25.161V20.978h400.564V404.935z"/>
<path fill="#FFFFFF" d="M186.676,129.769H395.58c5.535,0,10.02-4.487,10.02-10.019V66.639c0-5.532-4.484-10.02-10.02-10.02H186.676
	c-5.532,0-10.02,4.487-10.02,10.02v53.111C176.656,125.282,181.144,129.769,186.676,129.769z M196.696,76.658h188.865v33.072
	H196.696V76.658z"/>
<path fill="#FFFFFF" d="M147.94,190.12h38.736c5.532,0,10.02-4.487,10.02-10.02s-4.487-10.02-10.02-10.02H147.94
	c-5.532,0-10.02,4.487-10.02,10.02S142.407,190.12,147.94,190.12z"/>
<path fill="#FFFFFF" d="M235.07,174.541c-2.339-3.501-6.713-5.181-10.799-4.136c-4,1.021-6.994,4.452-7.485,8.553
	c-0.487,4.105,1.73,8.195,5.411,10.066c3.727,1.895,8.331,1.232,11.396-1.61C237.136,184.124,237.752,178.549,235.07,174.541z"/>
<path fill="#FFFFFF" d="M256.598,180.101c0,5.532,4.487,10.02,10.02,10.02h189.637c5.532,0,10.02-4.487,10.02-10.02
	s-4.487-10.02-10.02-10.02H266.617C261.085,170.081,256.598,174.568,256.598,180.101z"/>
<path fill="#FFFFFF" d="M452.43,307.582c3.855,1.598,8.444,0.576,11.247-2.519c2.812-3.104,3.38-7.759,1.407-11.45
	c-1.992-3.728-6.249-5.859-10.433-5.17c-4.194,0.689-7.59,4.051-8.284,8.254C445.618,301.227,448.184,305.827,452.43,307.582z"/>
<path fill="#FFFFFF" d="M304.874,308.354h111.505c5.532,0,10.02-4.487,10.02-10.023c0-5.532-4.487-10.02-10.02-10.02H304.874
	c-5.536,0-10.02,4.487-10.02,10.02C294.855,303.866,299.338,308.354,304.874,308.354z"/>
</svg>
