<?xml version="1.0" encoding="utf-8"?>
<!-- Generator: Adobe Illustrator 15.0.0, SVG Export Plug-In . SVG Version: 6.00 Build 0)  -->
<!DOCTYPE svg PUBLIC "-//W3C//DTD SVG 1.1//EN" "http://www.w3.org/Graphics/SVG/1.1/DTD/svg11.dtd">
<svg version="1.1" id="Capa_1" xmlns="http://www.w3.org/2000/svg" xmlns:xlink="http://www.w3.org/1999/xlink" x="0px" y="0px"
	 width="595.279px" height="841.891px" viewBox="0 0 595.279 841.891" enable-background="new 0 0 595.279 841.891"
	 xml:space="preserve">
<g>
	<g>
		<path fill="#FFFFFF" d="M585.356,361.418h-99.212v19.843h89.291v317.48H19.844v-317.48h89.291v-19.843H9.923
			c-5.476,0-9.921,4.435-9.921,9.921v337.324c0,5.486,4.445,9.921,9.921,9.921h575.433c5.476,0,9.921-4.435,9.921-9.921V371.341
			C595.278,365.854,590.833,361.418,585.356,361.418z"/>
	</g>
</g>
<g>
	<g>
		<path fill="#FFFFFF" d="M589.562,362.361c-3.481-1.637-7.6-1.101-10.556,1.359L352.384,552.582
			c-2.411,2.014-3.73,5.061-3.552,8.195c0.18,3.135,1.836,6.003,4.465,7.729l226.621,148.462c1.647,1.072,3.541,1.617,5.437,1.617
			c1.617,0,3.243-0.396,4.712-1.19c3.215-1.735,5.209-5.09,5.209-8.73V371.341C595.278,367.5,593.055,363.988,589.562,362.361z
			 M575.435,690.309l-200.052-131.07l200.052-166.716V690.309z"/>
	</g>
</g>
<g>
	<g>
		<path fill="#FFFFFF" d="M242.895,552.572L16.273,363.721c-2.957-2.46-7.074-2.996-10.556-1.359
			c-3.493,1.627-5.715,5.13-5.715,8.979v337.322c0,3.65,2.005,7.005,5.209,8.73c1.468,0.794,3.095,1.19,4.712,1.19
			c1.896,0,3.79-0.536,5.437-1.617l226.621-148.472c2.629-1.727,4.285-4.593,4.465-7.728
			C246.624,557.632,245.305,554.586,242.895,552.572z M19.844,690.309V392.522l200.052,166.716L19.844,690.309z"/>
	</g>
</g>
<g>
	<g>
		<path fill="#FFFFFF" d="M585.356,361.418h-99.212c-5.477,0-9.921,4.435-9.921,9.921v78.032l-123.838,103.21
			c-2.411,2.014-3.73,5.06-3.552,8.195c0.18,3.135,1.836,6.003,4.465,7.729l226.621,148.462c1.647,1.072,3.541,1.617,5.437,1.617
			c1.617,0,3.244-0.396,4.712-1.19c3.215-1.736,5.209-5.09,5.209-8.73V371.341C595.278,365.854,590.833,361.418,585.356,361.418z
			 M575.435,690.309l-200.052-131.07l117.109-97.595c2.263-1.896,3.572-4.684,3.572-7.629v-72.753h79.37V690.309L575.435,690.309z"
			/>
	</g>
</g>
<g>
	<g>
		<path fill="#FFFFFF" d="M242.895,552.562L119.058,449.36v-78.021c0-5.486-4.445-9.921-9.921-9.921H9.923
			c-5.476,0-9.921,4.435-9.921,9.921v337.324c0,3.65,2.005,7.005,5.209,8.73c1.468,0.794,3.095,1.19,4.712,1.19
			c1.896,0,3.79-0.536,5.437-1.617l226.621-148.481c2.629-1.727,4.285-4.594,4.465-7.729
			C246.624,557.621,245.305,554.576,242.895,552.562z M19.844,690.309V381.262h79.37v72.753c0,2.945,1.31,5.744,3.572,7.629
			l117.109,97.595L19.844,690.309z"/>
	</g>
</g>
<g>
	<g>
		<path fill="#FFFFFF" d="M113.353,280.264c-3.482-1.627-7.58-1.112-10.547,1.339L3.594,363.701
			c-3.215,2.659-4.425,7.073-3.007,11.002s5.149,6.559,9.336,6.559h99.212c5.477,0,9.921-4.435,9.921-9.921v-82.098
			C119.058,285.392,116.834,281.9,113.353,280.264z M99.214,361.418H37.475l61.739-51.084V361.418z"/>
	</g>
</g>
<g>
	<g>
		<path fill="#FFFFFF" d="M375.888,185.118l-71.929-59.527c-3.671-3.046-8.979-3.046-12.649,0l-71.93,59.527
			c-3.215,2.659-4.425,7.074-3.007,11.003c1.419,3.929,5.149,6.559,9.336,6.559h143.857c4.188,0,7.907-2.629,9.326-6.559
			C380.314,192.192,379.113,187.787,375.888,185.118z M253.262,182.836l44.378-36.728l44.378,36.728H253.262z"/>
	</g>
</g>
<g>
	<g>
		<path fill="#FFFFFF" d="M591.685,363.701l-66.373-54.934c-3.304-2.729-7.977-3.026-11.607-0.754
			c-9.267,5.823-19.198,9.842-29.525,11.925c-4.634,0.933-7.958,5.001-7.958,9.724v41.68c0,5.486,4.445,9.921,9.921,9.921h99.213
			c4.187,0,7.917-2.629,9.336-6.559C596.11,370.774,594.91,366.369,591.685,363.701z M496.065,361.418v-23.97
			c7.55-2.153,14.892-5.149,21.926-8.979l39.813,32.948L496.065,361.418L496.065,361.418z"/>
	</g>
</g>
<g>
	<g>
		<path fill="#FFFFFF" d="M466.3,123.309c-60.173,0-109.134,48.961-109.134,109.134c0,60.173,48.961,109.135,109.134,109.135
			c60.183,0,109.135-48.962,109.135-109.134C575.435,172.27,526.473,123.309,466.3,123.309z M466.3,321.734
			c-49.239,0-89.291-40.052-89.291-89.292c0-49.239,40.052-89.291,89.291-89.291s89.292,40.052,89.292,89.291
			C555.592,281.682,515.539,321.734,466.3,321.734z"/>
	</g>
</g>
<g>
	<g>
		<path fill="#FFFFFF" d="M512.335,195.059c-4.206-3.493-10.456-2.946-13.969,1.27l-42.652,51.183l-22.084-22.084
			c-3.869-3.88-10.159-3.88-14.028,0c-3.879,3.88-3.879,10.15,0,14.028l29.764,29.764c1.865,1.875,4.386,2.906,7.014,2.906
			c0.149,0,0.298,0,0.447-0.01c2.788-0.119,5.388-1.409,7.173-3.552l49.607-59.528C517.117,204.822,516.542,198.571,512.335,195.059
			z"/>
	</g>
</g>
<g>
	<g>
		<path fill="#FFFFFF" d="M377.009,361.418h-69.448c-5.477,0-9.921,4.435-9.921,9.921c0,5.487,4.444,9.921,9.921,9.921h69.448
			c5.477,0,9.921-4.434,9.921-9.921C386.93,365.854,382.487,361.418,377.009,361.418z"/>
	</g>
</g>
<g>
	<g>
		<path fill="#FFFFFF" d="M267.876,361.418H158.742c-5.477,0-9.921,4.435-9.921,9.921c0,5.487,4.444,9.921,9.921,9.921h109.134
			c5.477,0,9.921-4.434,9.921-9.921C277.797,365.854,273.353,361.418,267.876,361.418z"/>
	</g>
</g>
<g>
	<g>
		<path fill="#FFFFFF" d="M406.773,460.632h-69.448c-5.476,0-9.921,4.435-9.921,9.921s4.445,9.921,9.921,9.921h69.448
			c5.477,0,9.921-4.435,9.921-9.921S412.25,460.632,406.773,460.632z"/>
	</g>
</g>
<g>
	<g>
		<path fill="#FFFFFF" d="M297.639,460.632H188.505c-5.477,0-9.921,4.435-9.921,9.921s4.444,9.921,9.921,9.921h109.134
			c5.476,0,9.921-4.435,9.921-9.921S303.115,460.632,297.639,460.632z"/>
	</g>
</g>
<g>
	<g>
		<path fill="#FFFFFF" d="M436.536,361.418h-19.843c-5.476,0-9.921,4.435-9.921,9.921c0,5.487,4.445,9.921,9.921,9.921h19.843
			c5.477,0,9.921-4.434,9.921-9.921C446.457,365.854,442.014,361.418,436.536,361.418z"/>
	</g>
</g>
<g>
	<g>
		<path fill="#FFFFFF" d="M287.718,411.025H218.27c-5.477,0-9.921,4.434-9.921,9.921c0,5.486,4.444,9.921,9.921,9.921h69.448
			c5.477,0,9.921-4.435,9.921-9.921C297.639,415.459,293.196,411.025,287.718,411.025z"/>
	</g>
</g>
<g>
	<g>
		<path fill="#FFFFFF" d="M436.536,411.025H327.403c-5.477,0-9.921,4.434-9.921,9.921c0,5.486,4.444,9.921,9.921,9.921h109.134
			c5.477,0,9.921-4.435,9.921-9.921C446.457,415.459,442.014,411.025,436.536,411.025z"/>
	</g>
</g>
<g>
	<g>
		<path fill="#FFFFFF" d="M218.27,311.813h-69.448c-5.477,0-9.921,4.435-9.921,9.921c0,5.487,4.444,9.921,9.921,9.921h69.448
			c5.476,0,9.921-4.434,9.921-9.921C228.191,316.248,223.745,311.813,218.27,311.813z"/>
	</g>
</g>
<g>
	<g>
		<path fill="#FFFFFF" d="M367.088,311.813H257.954c-5.477,0-9.921,4.435-9.921,9.921c0,5.487,4.444,9.921,9.921,9.921h109.134
			c5.477,0,9.921-4.434,9.921-9.921C377.009,316.248,372.565,311.813,367.088,311.813z"/>
	</g>
</g>
<g>
	<g>
		<path fill="#FFFFFF" d="M178.585,411.025h-19.843c-5.477,0-9.921,4.434-9.921,9.921c0,5.486,4.444,9.921,9.921,9.921h19.843
			c5.476,0,9.921-4.435,9.921-9.921C188.506,415.459,184.061,411.025,178.585,411.025z"/>
	</g>
</g>
<g>
	<g>
		<path fill="#FFFFFF" d="M337.324,262.207H218.27c-5.477,0-9.921,4.434-9.921,9.921c0,5.486,4.444,9.921,9.921,9.921h119.055
			c5.477,0,9.921-4.435,9.921-9.921C347.245,266.641,342.801,262.207,337.324,262.207z"/>
	</g>
</g>
<g>
	<g>
		<path fill="#FFFFFF" d="M178.585,262.207h-19.843c-5.477,0-9.921,4.434-9.921,9.921c0,5.486,4.444,9.921,9.921,9.921h19.843
			c5.476,0,9.921-4.435,9.921-9.921C188.506,266.641,184.061,262.207,178.585,262.207z"/>
	</g>
</g>
<g>
	<g>
		<path fill="#FFFFFF" d="M492.413,321.972c-2.302-1.884-5.347-2.628-8.255-2.033c-5.843,1.19-11.855,1.796-17.857,1.796
			c-49.24,0-89.292-40.052-89.292-89.292c0-12.341,2.52-24.356,7.48-35.716c1.35-3.056,1.053-6.598-0.783-9.396
			c-1.836-2.808-4.961-4.495-8.304-4.495H109.135c-5.476,0-9.921,4.435-9.921,9.921v261.257c0,2.945,1.31,5.744,3.572,7.629
			L230.195,567.83c3.344,2.788,8.136,3.066,11.787,0.675l32.968-21.609c13.781-9.027,31.6-9.038,45.39,0.011l32.959,21.599
			c1.657,1.081,3.552,1.617,5.437,1.617c2.271,0,4.523-0.774,6.35-2.302l127.408-106.178c2.263-1.896,3.572-4.684,3.572-7.63
			V329.661C496.065,326.695,494.725,323.857,492.413,321.972z M476.223,449.371l-118.192,98.507l-26.818-17.571
			c-10.198-6.686-21.887-10.029-33.573-10.029s-23.375,3.344-33.574,10.021l-26.817,17.571l-118.192-98.508V202.679h242.249
			c-2.748,9.654-4.137,19.625-4.137,29.764c0,60.173,48.962,109.135,109.135,109.135c3.313,0,6.627-0.149,9.921-0.436V449.371z"/>
	</g>
</g>
</svg>
