<?xml version="1.0" encoding="utf-8"?>
<!-- Generator: Adobe Illustrator 15.0.0, SVG Export Plug-In . SVG Version: 6.00 Build 0)  -->
<!DOCTYPE svg PUBLIC "-//W3C//DTD SVG 1.1//EN" "http://www.w3.org/Graphics/SVG/1.1/DTD/svg11.dtd">
<svg version="1.1" id="Capa_1" xmlns="http://www.w3.org/2000/svg" xmlns:xlink="http://www.w3.org/1999/xlink" x="0px" y="0px"
	 width="512px" height="512px" viewBox="0 0 512 512" enable-background="new 0 0 512 512" xml:space="preserve">
<g>
	<path fill="#FFFFFF" d="M398.847,497H45.789c-6.904,0-12.521-5.617-12.521-12.52V281.396c0-4.143-3.356-7.5-7.5-7.5
		c-4.143,0-7.5,3.357-7.5,7.5V484.48c0,15.175,12.346,27.52,27.521,27.52h353.058c4.143,0,7.5-3.358,7.5-7.5
		S402.989,497,398.847,497L398.847,497z"/>
	<path fill="#FFFFFF" d="M188.239,249.415c1.295,2.473,3.854,4.023,6.646,4.023h271.327c6.902,0,12.52,5.617,12.52,12.521V484.48
		c0,6.902-5.616,12.52-12.52,12.52h-32.365c-4.144,0-7.5,3.358-7.5,7.5s3.356,7.5,7.5,7.5h32.365c15.175,0,27.52-12.345,27.52-27.52
		V265.958c0-15.175-12.345-27.521-27.52-27.521h-22.104V126.931c0-1.912-0.745-3.852-2.196-5.303L399.16,78.877V22.515
		C399.16,10.1,389.061,0,376.646,0H84.281C71.865,0,61.767,10.1,61.767,22.515v166.293H40.782c-12.414,0-22.515,10.1-22.515,22.515
		v34.961c0,4.142,3.357,7.5,7.5,7.5c4.144,0,7.5-3.358,7.5-7.5v-34.961c0-4.145,3.371-7.515,7.515-7.515h119.045
		c2.806,0,5.356,1.544,6.657,4.031C176.406,226.799,178.608,231.008,188.239,249.415L188.239,249.415z M358.184,59.112
		c6.932,6.932,50.953,50.953,60.318,60.318h-47.063c-7.309,0-13.255-5.946-13.255-13.255V59.112z M76.767,22.515
		c0-4.144,3.371-7.515,7.516-7.515h292.363c4.146,0,7.516,3.371,7.516,7.515v41.361l-28.174-28.174
		c-1.328-1.328-3.242-2.197-5.304-2.197H141.892c-15.58,0-28.255,12.675-28.255,28.255v127.048h-36.87V22.515z M199.425,238.438
		l-7.75-14.812h195.562c4.144,0,7.5-3.358,7.5-7.5s-3.356-7.5-7.5-7.5H183.827l-4.051-7.741
		c-3.896-7.449-11.542-12.077-19.948-12.077h-31.19V61.761c0-7.309,5.946-13.255,13.255-13.255h201.292v57.67
		c0,15.58,12.675,28.255,28.255,28.255h57.67v104.007H199.425z"/>
	<path fill="#FFFFFF" d="M387.237,158.956h-215.85c-4.143,0-7.5,3.358-7.5,7.5s3.357,7.5,7.5,7.5h215.85c4.144,0,7.5-3.358,7.5-7.5
		S391.38,158.956,387.237,158.956z"/>
</g>
</svg>
